<<<<<<< HEAD
<mxfile host="65bd71144e">
    <diagram name="Page-1" id="DZFJjUd3ljoXENZwl3Td">
        <mxGraphModel dx="1786" dy="1291" grid="1" gridSize="10" guides="1" tooltips="1" connect="1" arrows="1" fold="1" page="0" pageScale="1" pageWidth="850" pageHeight="1100" background="none" math="0" shadow="0">
            <root>
                <mxCell id="0"/>
                <mxCell id="1" parent="0"/>
                <mxCell id="9" value="" style="edgeStyle=none;html=1;" edge="1" parent="1" source="VBBlRLAb8-lXqyezA_-O-3" target="8">
                    <mxGeometry relative="1" as="geometry"/>
                </mxCell>
                <mxCell id="VBBlRLAb8-lXqyezA_-O-3" value="SQL DB" style="shape=cylinder3;whiteSpace=wrap;html=1;boundedLbl=1;backgroundOutline=1;size=15;rounded=0;" parent="1" vertex="1">
                    <mxGeometry x="-300" y="435" width="60" height="80" as="geometry"/>
                </mxCell>
                <mxCell id="VBBlRLAb8-lXqyezA_-O-4" value="&lt;div&gt;Django User Model&lt;/div&gt;" style="ellipse;whiteSpace=wrap;html=1;aspect=fixed;rounded=0;" parent="1" vertex="1">
                    <mxGeometry x="730" y="130" width="80" height="80" as="geometry"/>
                </mxCell>
                <mxCell id="VBBlRLAb8-lXqyezA_-O-6" value="View" style="shape=step;perimeter=stepPerimeter;whiteSpace=wrap;html=1;fixedSize=1;size=20;fillColor=#e51400;strokeColor=#B20000;fontColor=#ffffff;rounded=0;" parent="1" vertex="1">
                    <mxGeometry x="900" y="170" width="135" height="70" as="geometry"/>
                </mxCell>
                <mxCell id="VBBlRLAb8-lXqyezA_-O-9" value="&lt;div&gt;UI&lt;/div&gt;" style="whiteSpace=wrap;html=1;aspect=fixed;rounded=0;" parent="1" vertex="1">
                    <mxGeometry x="780" y="415" width="120" height="120" as="geometry"/>
                </mxCell>
                <mxCell id="VBBlRLAb8-lXqyezA_-O-10" value="&lt;div&gt;Forms&lt;/div&gt;&lt;div&gt;&lt;br&gt;&lt;/div&gt;Sign Up!" style="shape=process;whiteSpace=wrap;html=1;backgroundOutline=1;rounded=0;" parent="1" vertex="1">
                    <mxGeometry x="840" y="-40" width="120" height="60" as="geometry"/>
                </mxCell>
                <mxCell id="VBBlRLAb8-lXqyezA_-O-12" value="Login" style="shape=dataStorage;whiteSpace=wrap;html=1;fixedSize=1;rounded=0;" parent="1" vertex="1">
                    <mxGeometry x="910" y="50" width="100" height="80" as="geometry"/>
                </mxCell>
                <mxCell id="VBBlRLAb8-lXqyezA_-O-35" value="Lists View" style="swimlane;fontStyle=0;childLayout=stackLayout;horizontal=1;startSize=26;fillColor=none;horizontalStack=0;resizeParent=1;resizeParentMax=0;resizeLast=0;collapsible=1;marginBottom=0;whiteSpace=wrap;html=1;rounded=0;" parent="1" vertex="1">
                    <mxGeometry x="100" y="140" width="120" height="108" as="geometry"/>
                </mxCell>
                <mxCell id="VBBlRLAb8-lXqyezA_-O-36" value="TodoDetailedView" style="text;strokeColor=none;fillColor=none;align=left;verticalAlign=top;spacingLeft=4;spacingRight=4;overflow=hidden;rotatable=0;points=[[0,0.5],[1,0.5]];portConstraint=eastwest;whiteSpace=wrap;html=1;rounded=0;" parent="VBBlRLAb8-lXqyezA_-O-35" vertex="1">
                    <mxGeometry y="26" width="120" height="26" as="geometry"/>
                </mxCell>
                <mxCell id="VBBlRLAb8-lXqyezA_-O-37" value="TodoDraftView" style="text;strokeColor=none;fillColor=none;align=left;verticalAlign=top;spacingLeft=4;spacingRight=4;overflow=hidden;rotatable=0;points=[[0,0.5],[1,0.5]];portConstraint=eastwest;whiteSpace=wrap;html=1;rounded=0;" parent="VBBlRLAb8-lXqyezA_-O-35" vertex="1">
                    <mxGeometry y="52" width="120" height="28" as="geometry"/>
                </mxCell>
                <mxCell id="43" value="TodoListView" style="text;strokeColor=none;fillColor=none;align=left;verticalAlign=top;spacingLeft=4;spacingRight=4;overflow=hidden;rotatable=0;points=[[0,0.5],[1,0.5]];portConstraint=eastwest;whiteSpace=wrap;html=1;rounded=0;" vertex="1" parent="VBBlRLAb8-lXqyezA_-O-35">
                    <mxGeometry y="80" width="120" height="28" as="geometry"/>
                </mxCell>
                <mxCell id="VBBlRLAb8-lXqyezA_-O-42" value="Todo Type" style="swimlane;fontStyle=0;childLayout=stackLayout;horizontal=1;startSize=26;fillColor=none;horizontalStack=0;resizeParent=1;resizeParentMax=0;resizeLast=0;collapsible=1;marginBottom=0;whiteSpace=wrap;html=1;rounded=0;" parent="1" vertex="1">
                    <mxGeometry x="400" width="140" height="104" as="geometry">
                        <mxRectangle x="400" width="70" height="30" as="alternateBounds"/>
                    </mxGeometry>
                </mxCell>
                <mxCell id="VBBlRLAb8-lXqyezA_-O-43" value="Public" style="text;strokeColor=none;fillColor=none;align=left;verticalAlign=top;spacingLeft=4;spacingRight=4;overflow=hidden;rotatable=0;points=[[0,0.5],[1,0.5]];portConstraint=eastwest;whiteSpace=wrap;html=1;rounded=0;" parent="VBBlRLAb8-lXqyezA_-O-42" vertex="1">
                    <mxGeometry y="26" width="140" height="26" as="geometry"/>
                </mxCell>
                <mxCell id="VBBlRLAb8-lXqyezA_-O-44" value="Private(invite only)" style="text;strokeColor=none;fillColor=none;align=left;verticalAlign=top;spacingLeft=4;spacingRight=4;overflow=hidden;rotatable=0;points=[[0,0.5],[1,0.5]];portConstraint=eastwest;whiteSpace=wrap;html=1;rounded=0;" parent="VBBlRLAb8-lXqyezA_-O-42" vertex="1">
                    <mxGeometry y="52" width="140" height="26" as="geometry"/>
                </mxCell>
                <mxCell id="VBBlRLAb8-lXqyezA_-O-45" value="Draft" style="text;strokeColor=none;fillColor=none;align=left;verticalAlign=top;spacingLeft=4;spacingRight=4;overflow=hidden;rotatable=0;points=[[0,0.5],[1,0.5]];portConstraint=eastwest;whiteSpace=wrap;html=1;rounded=0;" parent="VBBlRLAb8-lXqyezA_-O-42" vertex="1">
                    <mxGeometry y="78" width="140" height="26" as="geometry"/>
                </mxCell>
                <mxCell id="11" value="" style="edgeStyle=none;html=1;entryX=0;entryY=0.5;entryDx=0;entryDy=0;entryPerimeter=0;" edge="1" parent="1" source="8" target="27">
                    <mxGeometry relative="1" as="geometry">
                        <mxPoint x="120" y="395" as="targetPoint"/>
                    </mxGeometry>
                </mxCell>
                <mxCell id="8" value="DJANGO REST API" style="whiteSpace=wrap;html=1;rounded=0;" vertex="1" parent="1">
                    <mxGeometry x="-120" y="420" width="130" height="110" as="geometry"/>
                </mxCell>
                <mxCell id="15" value="" style="edgeStyle=none;html=1;exitX=1;exitY=0.5;exitDx=0;exitDy=0;exitPerimeter=0;" edge="1" parent="1" source="27" target="14">
                    <mxGeometry relative="1" as="geometry">
                        <mxPoint x="210" y="415" as="sourcePoint"/>
                    </mxGeometry>
                </mxCell>
                <mxCell id="16" style="edgeStyle=none;html=1;" edge="1" parent="1" source="14" target="VBBlRLAb8-lXqyezA_-O-9">
                    <mxGeometry relative="1" as="geometry"/>
                </mxCell>
                <mxCell id="25" style="edgeStyle=none;html=1;exitX=0;exitY=1;exitDx=0;exitDy=0;entryX=0;entryY=0.5;entryDx=0;entryDy=0;entryPerimeter=0;fontFamily=Verdana;" edge="1" parent="1" source="14" target="24">
                    <mxGeometry relative="1" as="geometry"/>
                </mxCell>
                <mxCell id="14" value="REACT" style="ellipse;whiteSpace=wrap;html=1;rounded=0;" vertex="1" parent="1">
                    <mxGeometry x="580" y="435" width="80" height="80" as="geometry"/>
                </mxCell>
                <mxCell id="26" style="edgeStyle=none;html=1;exitX=1;exitY=0.5;exitDx=0;exitDy=0;exitPerimeter=0;entryX=1;entryY=0.75;entryDx=0;entryDy=0;fontFamily=Verdana;" edge="1" parent="1" source="24" target="8">
                    <mxGeometry relative="1" as="geometry"/>
                </mxCell>
                <mxCell id="24" value="HTTP REQ" style="shape=singleArrow;direction=west;whiteSpace=wrap;html=1;fontFamily=Verdana;" vertex="1" parent="1">
                    <mxGeometry x="100" y="530" width="120" height="70" as="geometry"/>
                </mxCell>
                <mxCell id="27" value="JSON" style="shape=singleArrow;whiteSpace=wrap;html=1;fontFamily=Verdana;" vertex="1" parent="1">
                    <mxGeometry x="100" y="355" width="120" height="80" as="geometry"/>
                </mxCell>
                <mxCell id="28" value="Models" style="swimlane;fontStyle=0;childLayout=stackLayout;horizontal=1;startSize=26;fillColor=none;horizontalStack=0;resizeParent=1;resizeParentMax=0;resizeLast=0;collapsible=1;marginBottom=0;html=1;fontFamily=Verdana;" vertex="1" parent="1">
                    <mxGeometry x="-170" width="140" height="104" as="geometry"/>
                </mxCell>
                <mxCell id="29" value="Django UM" style="text;strokeColor=none;fillColor=none;align=left;verticalAlign=top;spacingLeft=4;spacingRight=4;overflow=hidden;rotatable=0;points=[[0,0.5],[1,0.5]];portConstraint=eastwest;whiteSpace=wrap;html=1;fontFamily=Verdana;" vertex="1" parent="28">
                    <mxGeometry y="26" width="140" height="26" as="geometry"/>
                </mxCell>
                <mxCell id="30" value="Workspace" style="text;strokeColor=none;fillColor=none;align=left;verticalAlign=top;spacingLeft=4;spacingRight=4;overflow=hidden;rotatable=0;points=[[0,0.5],[1,0.5]];portConstraint=eastwest;whiteSpace=wrap;html=1;fontFamily=Verdana;" vertex="1" parent="28">
                    <mxGeometry y="52" width="140" height="26" as="geometry"/>
                </mxCell>
                <mxCell id="31" value="Todolist" style="text;strokeColor=none;fillColor=none;align=left;verticalAlign=top;spacingLeft=4;spacingRight=4;overflow=hidden;rotatable=0;points=[[0,0.5],[1,0.5]];portConstraint=eastwest;whiteSpace=wrap;html=1;fontFamily=Verdana;" vertex="1" parent="28">
                    <mxGeometry y="78" width="140" height="26" as="geometry"/>
                </mxCell>
                <mxCell id="32" style="edgeStyle=none;html=1;fontFamily=Verdana;exitX=0.993;exitY=1.154;exitDx=0;exitDy=0;exitPerimeter=0;" edge="1" parent="1" source="31">
                    <mxGeometry relative="1" as="geometry">
                        <mxPoint x="100" y="170" as="targetPoint"/>
                        <Array as="points">
                            <mxPoint x="-31" y="170"/>
                            <mxPoint x="10" y="170"/>
                        </Array>
                    </mxGeometry>
                </mxCell>
                <mxCell id="37" value="WorkspaceView" style="whiteSpace=wrap;html=1;fontFamily=Verdana;" vertex="1" parent="1">
                    <mxGeometry x="100" y="50" width="120" height="30" as="geometry"/>
                </mxCell>
                <mxCell id="38" style="edgeStyle=none;html=1;exitX=1;exitY=0.5;exitDx=0;exitDy=0;fontFamily=Verdana;" edge="1" parent="1" source="30" target="37">
                    <mxGeometry relative="1" as="geometry"/>
                </mxCell>
                <mxCell id="39" value="UserView" style="swimlane;fontStyle=0;childLayout=stackLayout;horizontal=1;startSize=26;fillColor=none;horizontalStack=0;resizeParent=1;resizeParentMax=0;resizeLast=0;collapsible=1;marginBottom=0;html=1;fontFamily=Verdana;" vertex="1" parent="1">
                    <mxGeometry x="90" y="-150" width="140" height="52" as="geometry"/>
                </mxCell>
                <mxCell id="40" value="UMDetailedView" style="text;strokeColor=none;fillColor=none;align=left;verticalAlign=top;spacingLeft=4;spacingRight=4;overflow=hidden;rotatable=0;points=[[0,0.5],[1,0.5]];portConstraint=eastwest;whiteSpace=wrap;html=1;fontFamily=Verdana;" vertex="1" parent="39">
                    <mxGeometry y="26" width="140" height="26" as="geometry"/>
                </mxCell>
                <mxCell id="44" style="edgeStyle=none;html=1;exitX=1;exitY=0.5;exitDx=0;exitDy=0;entryX=0;entryY=0.25;entryDx=0;entryDy=0;fontFamily=Verdana;" edge="1" parent="1" source="29" target="39">
                    <mxGeometry relative="1" as="geometry">
                        <Array as="points">
                            <mxPoint x="-30" y="-130"/>
                        </Array>
                    </mxGeometry>
                </mxCell>
                <mxCell id="46" value="" style="swimlane;startSize=0;fontFamily=Verdana;" vertex="1" parent="1">
                    <mxGeometry x="-270" y="-220" width="930" height="520" as="geometry"/>
                </mxCell>
                <mxCell id="45" value="Every logged in User &lt;br&gt;will have a Workspace&lt;br&gt;With editable TodoLists&lt;br&gt;Not saved Lists stay in draft&lt;br&gt;Only after save does the DB get updated&lt;br&gt;" style="text;html=1;align=center;verticalAlign=middle;resizable=0;points=[];autosize=1;strokeColor=none;fillColor=none;fontFamily=Verdana;" vertex="1" parent="46">
                    <mxGeometry width="220" height="90" as="geometry"/>
                </mxCell>
                <mxCell id="48" style="edgeStyle=none;html=1;entryX=1;entryY=0.5;entryDx=0;entryDy=0;fontFamily=Verdana;" edge="1" parent="1" source="47" target="VBBlRLAb8-lXqyezA_-O-9">
                    <mxGeometry relative="1" as="geometry"/>
                </mxCell>
                <mxCell id="47" value="" style="verticalLabelPosition=bottom;shadow=0;dashed=0;align=center;html=1;verticalAlign=top;strokeWidth=1;shape=mxgraph.mockup.containers.userMale;strokeColor=#666666;strokeColor2=#008cff;fontFamily=Verdana;" vertex="1" parent="1">
                    <mxGeometry x="1010" y="437.5" width="70" height="75" as="geometry"/>
                </mxCell>
            </root>
        </mxGraphModel>
    </diagram>
</mxfile>
=======
<mxfile host="app.diagrams.net" modified="2024-06-25T14:57:04.437Z" agent="Mozilla/5.0 (X11; Ubuntu; Linux x86_64; rv:126.0) Gecko/20100101 Firefox/126.0" etag="4L2R4d_vly7HttKqDVkW" version="24.6.2" type="github">
  <diagram name="Page-1" id="DZFJjUd3ljoXENZwl3Td">
    <mxGraphModel dx="2284" dy="915" grid="1" gridSize="10" guides="1" tooltips="1" connect="1" arrows="1" fold="1" page="1" pageScale="1" pageWidth="850" pageHeight="1100" math="0" shadow="0">
      <root>
        <mxCell id="0" />
        <mxCell id="1" parent="0" />
        <mxCell id="VBBlRLAb8-lXqyezA_-O-19" style="edgeStyle=orthogonalEdgeStyle;rounded=0;orthogonalLoop=1;jettySize=auto;html=1;exitX=1;exitY=0.5;exitDx=0;exitDy=0;exitPerimeter=0;entryX=0;entryY=0.5;entryDx=0;entryDy=0;" edge="1" parent="1" source="VBBlRLAb8-lXqyezA_-O-3" target="VBBlRLAb8-lXqyezA_-O-6">
          <mxGeometry relative="1" as="geometry" />
        </mxCell>
        <mxCell id="VBBlRLAb8-lXqyezA_-O-3" value="SQL DB" style="shape=cylinder3;whiteSpace=wrap;html=1;boundedLbl=1;backgroundOutline=1;size=15;" vertex="1" parent="1">
          <mxGeometry x="-50" y="440" width="60" height="80" as="geometry" />
        </mxCell>
        <mxCell id="VBBlRLAb8-lXqyezA_-O-15" value="" style="edgeStyle=orthogonalEdgeStyle;rounded=0;orthogonalLoop=1;jettySize=auto;html=1;" edge="1" parent="1" source="VBBlRLAb8-lXqyezA_-O-4" target="VBBlRLAb8-lXqyezA_-O-14">
          <mxGeometry relative="1" as="geometry" />
        </mxCell>
        <mxCell id="VBBlRLAb8-lXqyezA_-O-4" value="&lt;div&gt;Django User Model&lt;/div&gt;" style="ellipse;whiteSpace=wrap;html=1;aspect=fixed;" vertex="1" parent="1">
          <mxGeometry x="120" y="360" width="80" height="80" as="geometry" />
        </mxCell>
        <mxCell id="VBBlRLAb8-lXqyezA_-O-6" value="View" style="shape=step;perimeter=stepPerimeter;whiteSpace=wrap;html=1;fixedSize=1;size=20;fillColor=#e51400;strokeColor=#B20000;fontColor=#ffffff;" vertex="1" parent="1">
          <mxGeometry x="272.5" y="445" width="135" height="70" as="geometry" />
        </mxCell>
        <mxCell id="VBBlRLAb8-lXqyezA_-O-17" style="edgeStyle=orthogonalEdgeStyle;rounded=0;orthogonalLoop=1;jettySize=auto;html=1;entryX=1;entryY=0.5;entryDx=0;entryDy=0;" edge="1" parent="1" source="VBBlRLAb8-lXqyezA_-O-9" target="VBBlRLAb8-lXqyezA_-O-12">
          <mxGeometry relative="1" as="geometry" />
        </mxCell>
        <mxCell id="VBBlRLAb8-lXqyezA_-O-9" value="&lt;div&gt;User Interface&lt;/div&gt;&lt;div&gt;&lt;br&gt;&lt;/div&gt;" style="whiteSpace=wrap;html=1;aspect=fixed;fillColor=#dae8fc;strokeColor=#6c8ebf;" vertex="1" parent="1">
          <mxGeometry x="1020" y="400" width="120" height="120" as="geometry" />
        </mxCell>
        <mxCell id="VBBlRLAb8-lXqyezA_-O-26" style="edgeStyle=orthogonalEdgeStyle;rounded=0;orthogonalLoop=1;jettySize=auto;html=1;exitX=0;exitY=0.5;exitDx=0;exitDy=0;" edge="1" parent="1" source="VBBlRLAb8-lXqyezA_-O-10" target="VBBlRLAb8-lXqyezA_-O-14">
          <mxGeometry relative="1" as="geometry" />
        </mxCell>
        <mxCell id="VBBlRLAb8-lXqyezA_-O-10" value="&lt;div&gt;Forms&lt;/div&gt;&lt;div&gt;&lt;br&gt;&lt;/div&gt;Sign Up!" style="shape=process;whiteSpace=wrap;html=1;backgroundOutline=1;" vertex="1" parent="1">
          <mxGeometry x="320" y="260" width="120" height="60" as="geometry" />
        </mxCell>
        <mxCell id="VBBlRLAb8-lXqyezA_-O-12" value="Login" style="shape=dataStorage;whiteSpace=wrap;html=1;fixedSize=1;" vertex="1" parent="1">
          <mxGeometry x="290" y="600" width="100" height="80" as="geometry" />
        </mxCell>
        <mxCell id="VBBlRLAb8-lXqyezA_-O-13" value="&lt;div&gt;With urls leading the way&lt;/div&gt;" style="shape=callout;whiteSpace=wrap;html=1;perimeter=calloutPerimeter;fillColor=#ffe6cc;strokeColor=#d79b00;" vertex="1" parent="1">
          <mxGeometry x="320" y="390" width="120" height="80" as="geometry" />
        </mxCell>
        <mxCell id="VBBlRLAb8-lXqyezA_-O-24" style="edgeStyle=orthogonalEdgeStyle;rounded=0;orthogonalLoop=1;jettySize=auto;html=1;exitX=1;exitY=0.5;exitDx=0;exitDy=0;entryX=0;entryY=0.5;entryDx=0;entryDy=0;" edge="1" parent="1" source="VBBlRLAb8-lXqyezA_-O-14" target="VBBlRLAb8-lXqyezA_-O-10">
          <mxGeometry relative="1" as="geometry" />
        </mxCell>
        <mxCell id="VBBlRLAb8-lXqyezA_-O-14" value="&lt;div&gt;Inheriting User model&lt;/div&gt;" style="whiteSpace=wrap;html=1;" vertex="1" parent="1">
          <mxGeometry x="100" y="260" width="120" height="60" as="geometry" />
        </mxCell>
        <mxCell id="VBBlRLAb8-lXqyezA_-O-16" value="" style="curved=1;endArrow=classic;html=1;rounded=0;" edge="1" parent="1" target="VBBlRLAb8-lXqyezA_-O-20">
          <mxGeometry width="50" height="50" relative="1" as="geometry">
            <mxPoint x="400" y="500" as="sourcePoint" />
            <mxPoint x="670" y="420" as="targetPoint" />
            <Array as="points">
              <mxPoint x="450" y="500" />
              <mxPoint x="400" y="450" />
            </Array>
          </mxGeometry>
        </mxCell>
        <mxCell id="VBBlRLAb8-lXqyezA_-O-18" style="edgeStyle=orthogonalEdgeStyle;rounded=0;orthogonalLoop=1;jettySize=auto;html=1;exitX=0;exitY=0.5;exitDx=0;exitDy=0;entryX=0.5;entryY=1;entryDx=0;entryDy=0;entryPerimeter=0;" edge="1" parent="1" source="VBBlRLAb8-lXqyezA_-O-12" target="VBBlRLAb8-lXqyezA_-O-3">
          <mxGeometry relative="1" as="geometry" />
        </mxCell>
        <mxCell id="VBBlRLAb8-lXqyezA_-O-20" value="&lt;div&gt;HTML render&lt;/div&gt;" style="ellipse;shape=cloud;whiteSpace=wrap;html=1;fillColor=#fff2cc;strokeColor=#d6b656;" vertex="1" parent="1">
          <mxGeometry x="610" y="380" width="120" height="80" as="geometry" />
        </mxCell>
        <mxCell id="VBBlRLAb8-lXqyezA_-O-21" style="edgeStyle=orthogonalEdgeStyle;rounded=0;orthogonalLoop=1;jettySize=auto;html=1;exitX=0.875;exitY=0.5;exitDx=0;exitDy=0;exitPerimeter=0;entryX=0.083;entryY=0.167;entryDx=0;entryDy=0;entryPerimeter=0;" edge="1" parent="1" source="VBBlRLAb8-lXqyezA_-O-20" target="VBBlRLAb8-lXqyezA_-O-9">
          <mxGeometry relative="1" as="geometry" />
        </mxCell>
        <mxCell id="VBBlRLAb8-lXqyezA_-O-23" style="edgeStyle=orthogonalEdgeStyle;rounded=0;orthogonalLoop=1;jettySize=auto;html=1;exitX=0.5;exitY=1;exitDx=0;exitDy=0;entryX=0.196;entryY=0.043;entryDx=0;entryDy=0;entryPerimeter=0;" edge="1" parent="1" source="VBBlRLAb8-lXqyezA_-O-10" target="VBBlRLAb8-lXqyezA_-O-6">
          <mxGeometry relative="1" as="geometry" />
        </mxCell>
        <mxCell id="VBBlRLAb8-lXqyezA_-O-27" style="edgeStyle=orthogonalEdgeStyle;rounded=0;orthogonalLoop=1;jettySize=auto;html=1;exitX=0;exitY=0.5;exitDx=0;exitDy=0;entryX=0.5;entryY=0;entryDx=0;entryDy=0;entryPerimeter=0;" edge="1" parent="1" source="VBBlRLAb8-lXqyezA_-O-14" target="VBBlRLAb8-lXqyezA_-O-3">
          <mxGeometry relative="1" as="geometry" />
        </mxCell>
        <mxCell id="VBBlRLAb8-lXqyezA_-O-28" style="edgeStyle=orthogonalEdgeStyle;rounded=0;orthogonalLoop=1;jettySize=auto;html=1;exitX=0;exitY=0;exitDx=0;exitDy=0;entryX=1.008;entryY=0.367;entryDx=0;entryDy=0;entryPerimeter=0;" edge="1" parent="1" source="VBBlRLAb8-lXqyezA_-O-9" target="VBBlRLAb8-lXqyezA_-O-10">
          <mxGeometry relative="1" as="geometry" />
        </mxCell>
        <mxCell id="VBBlRLAb8-lXqyezA_-O-29" value="HTTP REQ" style="rhombus;whiteSpace=wrap;html=1;fillColor=#f5f5f5;strokeColor=#666666;gradientColor=#b3b3b3;" vertex="1" parent="1">
          <mxGeometry x="320" y="710" width="140" height="130" as="geometry" />
        </mxCell>
        <mxCell id="VBBlRLAb8-lXqyezA_-O-31" value="Models" style="swimlane;fontStyle=0;childLayout=stackLayout;horizontal=1;startSize=26;fillColor=none;horizontalStack=0;resizeParent=1;resizeParentMax=0;resizeLast=0;collapsible=1;marginBottom=0;whiteSpace=wrap;html=1;" vertex="1" parent="1">
          <mxGeometry y="2" width="140" height="78" as="geometry" />
        </mxCell>
        <mxCell id="VBBlRLAb8-lXqyezA_-O-32" value="&lt;div&gt;User model&lt;/div&gt;&lt;div&gt;&lt;br&gt;&lt;/div&gt;" style="text;strokeColor=none;fillColor=none;align=left;verticalAlign=top;spacingLeft=4;spacingRight=4;overflow=hidden;rotatable=0;points=[[0,0.5],[1,0.5]];portConstraint=eastwest;whiteSpace=wrap;html=1;" vertex="1" parent="VBBlRLAb8-lXqyezA_-O-31">
          <mxGeometry y="26" width="140" height="26" as="geometry" />
        </mxCell>
        <mxCell id="VBBlRLAb8-lXqyezA_-O-33" value="Todo list Model" style="text;strokeColor=none;fillColor=none;align=left;verticalAlign=top;spacingLeft=4;spacingRight=4;overflow=hidden;rotatable=0;points=[[0,0.5],[1,0.5]];portConstraint=eastwest;whiteSpace=wrap;html=1;" vertex="1" parent="VBBlRLAb8-lXqyezA_-O-31">
          <mxGeometry y="52" width="140" height="26" as="geometry" />
        </mxCell>
        <mxCell id="VBBlRLAb8-lXqyezA_-O-35" value="To do Views" style="swimlane;fontStyle=0;childLayout=stackLayout;horizontal=1;startSize=26;fillColor=none;horizontalStack=0;resizeParent=1;resizeParentMax=0;resizeLast=0;collapsible=1;marginBottom=0;whiteSpace=wrap;html=1;" vertex="1" parent="1">
          <mxGeometry x="190" y="2" width="140" height="78" as="geometry" />
        </mxCell>
        <mxCell id="VBBlRLAb8-lXqyezA_-O-36" value="Todo DetailedView" style="text;strokeColor=none;fillColor=none;align=left;verticalAlign=top;spacingLeft=4;spacingRight=4;overflow=hidden;rotatable=0;points=[[0,0.5],[1,0.5]];portConstraint=eastwest;whiteSpace=wrap;html=1;" vertex="1" parent="VBBlRLAb8-lXqyezA_-O-35">
          <mxGeometry y="26" width="140" height="26" as="geometry" />
        </mxCell>
        <mxCell id="VBBlRLAb8-lXqyezA_-O-37" value="Todo ListView" style="text;strokeColor=none;fillColor=none;align=left;verticalAlign=top;spacingLeft=4;spacingRight=4;overflow=hidden;rotatable=0;points=[[0,0.5],[1,0.5]];portConstraint=eastwest;whiteSpace=wrap;html=1;" vertex="1" parent="VBBlRLAb8-lXqyezA_-O-35">
          <mxGeometry y="52" width="140" height="26" as="geometry" />
        </mxCell>
        <mxCell id="VBBlRLAb8-lXqyezA_-O-42" value="Todo Type" style="swimlane;fontStyle=0;childLayout=stackLayout;horizontal=1;startSize=26;fillColor=none;horizontalStack=0;resizeParent=1;resizeParentMax=0;resizeLast=0;collapsible=1;marginBottom=0;whiteSpace=wrap;html=1;" vertex="1" parent="1">
          <mxGeometry x="400" width="140" height="104" as="geometry">
            <mxRectangle x="400" width="70" height="30" as="alternateBounds" />
          </mxGeometry>
        </mxCell>
        <mxCell id="VBBlRLAb8-lXqyezA_-O-43" value="Public" style="text;strokeColor=none;fillColor=none;align=left;verticalAlign=top;spacingLeft=4;spacingRight=4;overflow=hidden;rotatable=0;points=[[0,0.5],[1,0.5]];portConstraint=eastwest;whiteSpace=wrap;html=1;" vertex="1" parent="VBBlRLAb8-lXqyezA_-O-42">
          <mxGeometry y="26" width="140" height="26" as="geometry" />
        </mxCell>
        <mxCell id="VBBlRLAb8-lXqyezA_-O-44" value="Private(invite only)" style="text;strokeColor=none;fillColor=none;align=left;verticalAlign=top;spacingLeft=4;spacingRight=4;overflow=hidden;rotatable=0;points=[[0,0.5],[1,0.5]];portConstraint=eastwest;whiteSpace=wrap;html=1;" vertex="1" parent="VBBlRLAb8-lXqyezA_-O-42">
          <mxGeometry y="52" width="140" height="26" as="geometry" />
        </mxCell>
        <mxCell id="VBBlRLAb8-lXqyezA_-O-45" value="Draft" style="text;strokeColor=none;fillColor=none;align=left;verticalAlign=top;spacingLeft=4;spacingRight=4;overflow=hidden;rotatable=0;points=[[0,0.5],[1,0.5]];portConstraint=eastwest;whiteSpace=wrap;html=1;" vertex="1" parent="VBBlRLAb8-lXqyezA_-O-42">
          <mxGeometry y="78" width="140" height="26" as="geometry" />
        </mxCell>
      </root>
    </mxGraphModel>
  </diagram>
</mxfile>
>>>>>>> eb4821e065902691df6feded4be1fbfc715ca797
